{"accessors":[{"bufferView":0,"componentType":5123,"count":906,"max":[887],"min":[0],"type":"SCALAR"},{"bufferView":1,"componentType":5126,"count":888,"max":[1.0,178.37142944335938,15.232182502746582],"min":[-5.062616992290714e-14,74.2750473022461,-88.86292266845703],"type":"VEC3"},{"bufferView":2,"componentType":5126,"count":888,"max":[-0.7029526233673096,0.7080455422401428,0.7070480585098267],"min":[-0.7107306122779846,-0.7087675333023071,-0.7111254930496216],"type":"VEC3"},{"bufferView":3,"componentType":5126,"count":888,"max":[2.9403040409088135,1.6358842849731445],"min":[-2.9512979984283447,-2.5343143939971924],"type":"VEC2"},{"bufferView":4,"componentType":5123,"count":6372,"max":[3013],"min":[0],"type":"SCALAR"},{"bufferView":5,"componentType":5126,"count":3014,"max":[15.0,249.89761352539062,213.13571166992188],"min":[-1.1368683772161603e-13,-250.10238647460938,-286.754638671875],"type":"VEC3"},{"bufferView":6,"componentType":5126,"count":3014,"max":[1.0,1.0,0.9997806549072266],"min":[-1.0,-1.0,-0.9997806549072266],"type":"VEC3"},{"bufferView":7,"componentType":5126,"count":3014,"max":[0.9780155420303345,0.9555613994598389],"min":[0.0266801118850708,0.08243918418884277],"type":"VEC2"},{"bufferView":8,"componentType":5123,"count":12750,"max":[8196],"min":[0],"type":"SCALAR"},{"bufferView":9,"componentType":5126,"count":8197,"max":[15.0,211.3992919921875,15.249856948852539],"min":[-6.572520305780927e-14,-211.3596649169922,-91.04285430908203],"type":"VEC3"},{"bufferView":10,"componentType":5126,"count":8197,"max":[1.0,1.0,1.0],"min":[-1.0,-1.0,-1.0],"type":"VEC3"},{"bufferView":11,"componentType":5126,"count":8197,"max":[0.9814492464065552,0.9163179993629456],"min":[0.018549680709838867,0.11938607692718506],"type":"VEC2"}],"asset":{"generator":"Soft8Soft Verge3D for 3ds Max plug-in","version":"2.0"},"bufferViews":[{"buffer":0,"byteLength":1812,"byteOffset":0,"target":34963},{"buffer":0,"byteLength":10656,"byteOffset":1812,"target":34962},{"buffer":0,"byteLength":10656,"byteOffset":12468,"target":34962},{"buffer":0,"byteLength":7104,"byteOffset":23124,"target":34962},{"buffer":0,"byteLength":12744,"byteOffset":30228,"target":34963},{"buffer":0,"byteLength":36168,"byteOffset":42972,"target":34962},{"buffer":0,"byteLength":36168,"byteOffset":79140,"target":34962},{"buffer":0,"byteLength":24112,"byteOffset":115308,"target":34962},{"buffer":0,"byteLength":25500,"byteOffset":139420,"target":34963},{"buffer":0,"byteLength":98364,"byteOffset":164920,"target":34962},{"buffer":0,"byteLength":98364,"byteOffset":263284,"target":34962},{"buffer":0,"byteLength":65576,"byteOffset":361648,"target":34962}],"buffers":[{"byteLength":427224,"uri":"OMO_001.bin"}],"cameras":[{"extensions":{"S8S_v3d_camera_data":{"controls":"ORBIT","enablePan":true,"moveSpeed":1.0,"orbitMaxDistance":5000.0,"orbitMaxPolarAngle":3.141592653589793,"orbitMinDistance":0.0,"orbitMinPolarAngle":0.0,"orbitTarget":6,"rotateSpeed":1.0,"viewportFitInitialAspect":1.3161953727506426,"viewportFitType":"VERTICAL"}},"name":"PhysCamera002","perspective":{"aspectRatio":1.3161953727506426,"yfov":0.6097794498524646,"zfar":100000.0,"znear":0.0},"type":"perspective"}],"extensions":{"S8S_v3d_data":{"lights":[{"color":[1,1,1],"intensity":1,"name":"__DEFAULT__","profile":"max","type":"point"},{"color":[0.0,0.0,0.0],"intensity":1,"name":"__AMBIENT__","profile":"max","type":"ambient"}]}},"extensionsUsed":["S8S_v3d_material_data","S8S_v3d_camera_data","S8S_v3d_data","S8S_v3d_node_data","S8S_v3d_scene_data"],"materials":[{"doubleSided":false,"extensions":{"S8S_v3d_material_data":{"nodeGraph":{"edges":[{"fromNode":1,"fromOutput":0,"toInput":0,"toNode":0},{"fromNode":1,"fromOutput":1,"toInput":1,"toNode":0}],"nodes":[{"inputs":[[1,1,1,1]],"is_active_output":true,"name":"MaxOutput","outputs":[],"type":"OUTPUT_MX"},{"IOR":1.5,"inputFactors":[0,0,0,0,0,0,0,0,0,0,0,0],"inputs":[[0.0,0.0,0.0,1.0],[1.0,1.0,1.0,1.0],[0.33000000598383883,0.33000000598383883,0.33000000598383883,1.0],0.43219284057617186,1.0,[0.0,0.0,0.0,1.0],1.0,[0,0,0,0],[0,0,0],[0,0,0,0],[0,0,0,0],0],"is_active_output":false,"name":"FrontColor","outputs":[[0,0,0,0]],"selfIllumColorOn":false,"type":"MATERIAL_MX"}]},"profile":"max"}},"name":"FrontColor"},{"doubleSided":false,"extensions":{"S8S_v3d_material_data":{"nodeGraph":{"edges":[{"fromNode":1,"fromOutput":0,"toInput":0,"toNode":0},{"fromNode":1,"fromOutput":1,"toInput":1,"toNode":0}],"nodes":[{"inputs":[[1,1,1,1]],"is_active_output":true,"name":"MaxOutput","outputs":[],"type":"OUTPUT_MX"},{"IOR":1.52,"inputFactors":[0,0,0,0,0,0,0,0,0,0,0,0],"inputs":[[1,1,1,1],[1,1,1,1],[0,0,0,1],0,0,[0,0,0,1],1.0,[0,0,0,0],[0,0,0],[0,0,0,0],[0,0,0,0],0],"is_active_output":false,"name":"Paper","outputs":[[0,0,0,0]],"selfIllumColorOn":true,"type":"MATERIAL_MX"}]},"profile":"max"}},"name":"Paper"},{"doubleSided":false,"extensions":{"S8S_v3d_material_data":{"nodeGraph":{"edges":[{"fromNode":1,"fromOutput":0,"toInput":0,"toNode":0},{"fromNode":1,"fromOutput":1,"toInput":1,"toNode":0}],"nodes":[{"inputs":[[1,1,1,1]],"is_active_output":true,"name":"MaxOutput","outputs":[],"type":"OUTPUT_MX"},{"IOR":1.52,"inputFactors":[0,0,0,0,0,0,0,0,0,0,0,0],"inputs":[[1,1,1,1],[1,1,1,1],[0,0,0,1],0,0,[0,0,0,1],1.0,[0,0,0,0],[0,0,0],[0,0,0,0],[0,0,0,0],0],"is_active_output":false,"name":"Material #37","outputs":[[0,0,0,0]],"selfIllumColorOn":true,"type":"MATERIAL_MX"}]},"profile":"max"}},"name":"Material #37"},{"extensions":{"S8S_v3d_material_data":{"nodeGraph":{"edges":[{"fromNode":1,"fromOutput":0,"toInput":0,"toNode":0},{"fromNode":1,"fromOutput":1,"toInput":1,"toNode":0}],"nodes":[{"inputs":[[1,1,1,1]],"is_active_output":true,"name":"MaxOutput","outputs":[],"type":"OUTPUT_MX"},{"inputs":[[0,0,0,0]],"is_active_output":false,"name":"Skylight environment","outputs":[[0,0,0,0]],"type":"MAP_MX"}]},"profile":"max"}},"name":"Verge3D_Environment"}],"meshes":[{"name":"Mesh1","primitives":[{"attributes":{"NORMAL":2,"POSITION":1,"TEXCOORD_0":3},"indices":0,"material":0,"mode":4}]},{"name":"Mesh2","primitives":[{"attributes":{"NORMAL":6,"POSITION":5,"TEXCOORD_0":7},"indices":4,"material":1,"mode":4},{"attributes":{"NORMAL":10,"POSITION":9,"TEXCOORD_0":11},"indices":8,"material":2,"mode":4}]}],"nodes":[{"children":[1],"extensions":{"S8S_v3d_node_data":{"hidden":false}},"name":"Model","rotation":[0.7071068286895752,-0.0,0.0,0.7071067094802856],"translation":[867.0244140625,0.0,1176.9404296875]},{"children":[2,4],"extensions":{"S8S_v3d_node_data":{"hidden":false}},"name":"Group1"},{"children":[3],"extensions":{"S8S_v3d_node_data":{"hidden":false}},"name":"Group2"},{"extensions":{"S8S_v3d_node_data":{"frustumCulling":true,"hidden":false,"renderOrder":0,"useCastShadows":true,"useShadows":true}},"extras":{"customProps":{"MapChannel:1":""}},"mesh":0,"name":"Mesh1"},{"extensions":{"S8S_v3d_node_data":{"frustumCulling":true,"hidden":false,"renderOrder":0,"useCastShadows":true,"useShadows":true}},"extras":{"customProps":{"MapChannel:1":""}},"mesh":1,"name":"Mesh2"},{"camera":0,"children":[7],"extensions":{"S8S_v3d_node_data":{"hidden":false}},"name":"PhysCamera002","rotation":[-0.07917904108762741,0.4131338596343994,0.036085378378629684,0.9065037369728088],"scale":[0.9999998807907104,1.000000238418579,1.0],"translation":[1880.378173828125,282.0284118652344,2053.848876953125]},{"extensions":{"S8S_v3d_node_data":{"hidden":false}},"name":"PhysCamera002.Target","rotation":[0.5850068926811218,0.31764596700668335,-0.26661354303359985,0.6969829201698303],"scale":[0.9999998807907104,1.0000001192092896,1.0000001192092896],"translation":[871.8659057617188,46.80169677734375,1177.21533203125]},{"extensions":{"S8S_v3d_node_data":{"light":0}},"name":"__DEFAULT_LIGHT__","rotation":[3.774895063202166e-08,-0.0,-0.0,1.0],"scale":[1.0,1.0,1.0],"translation":[1250.0,1874.9998779296875,2500.0]}],"scene":0,"scenes":[{"extensions":{"S8S_v3d_scene_data":{"aaMethod":"AUTO","iblEnvironmentMode":"PMREM","light":1,"pmremMaxTileSize":256,"postprocessing":[],"shadowMap":{"renderReverseSided":false,"renderSingleSided":true,"type":"PCFPOISSON"},"worldMaterial":3}},"extras":{"animFrameRate":30,"coordSystem":"Z_UP_RIGHT"},"name":"Scene","nodes":[0,5,6]}]}
